Coordinates
version=1
nRows=12
nColumns=23
inDegrees=yes

Units are S.I. units (second, meters, Newtons, ...)
If the header above contains a line with 'inDegrees', this indicates whether rotational values are in degrees (yes) or radians (no).

endheader
time	pelvis_tilt	pelvis_list	pelvis_rotation	pelvis_tx	pelvis_ty	pelvis_tz	hip_flexion_r	hip_adduction_r	hip_rotation_r	knee_angle_r	knee_angle_r_beta	ankle_angle_r	subtalar_angle_r	mtp_angle_r	hip_flexion_l	hip_adduction_l	hip_rotation_l	knee_angle_l	knee_angle_l_beta	ankle_angle_l	subtalar_angle_l	mtp_angle_l
      0.00000000	    -12.20729309	     10.36115583	      7.84001594	      2.01315340	      0.97620368	      0.99861545	     24.20629172	    -18.68593341	     -6.80584850	    126.65017335	      2.21046252	    -23.17597583	    -18.62769478	      0.00000000	     31.77838571	     12.37580377	    -12.70767648	     47.71927420	      0.83285845	     25.69919841	      1.34905230	      0.00000000
      0.00666667	    -12.10605567	      9.64220312	      7.15525892	      2.01179261	      0.97840356	      0.99896422	     27.19610062	    -17.40529634	     -5.19627456	    126.67440337	      2.21088542	    -21.84289527	    -18.81226068	      0.00000000	     29.47281215	     11.27494239	    -12.67457661	     47.25889905	      0.82482339	     26.91785536	      2.46969890	      0.00000000
      0.01333333	    -12.05253364	      8.91221996	      6.44797453	      2.01062701	      0.98041965	      0.99936681	     30.09271969	    -16.00907218	     -3.69893731	    126.54900464	      2.20869680	    -20.51018172	    -19.13602617	      0.00000000	     27.13641320	     10.18990124	    -12.69192593	     46.57697116	      0.81292150	     27.83554585	      3.53575740	      0.00000000
      0.02000000	    -12.00118423	      8.25595186	      5.82120344	      2.00982813	      0.98255825	      0.99954842	     32.76871145	    -14.70602810	     -2.40523186	    126.20643556	      2.20271784	    -19.04387519	    -19.48138381	      0.00000000	     24.66873494	      9.35841450	    -12.48289888	     45.55411449	      0.79506929	     28.30677782	      3.86883642	      0.00000000
      0.02666667	    -12.05214941	      7.60943852	      4.85536607	      2.00927646	      0.98482089	      1.00038245	     35.55255752	    -13.07688902	     -0.97667431	    125.64220416	      2.19287014	    -17.80040421	    -19.91012064	      0.00000000	     22.22811179	      8.31863594	    -12.91891595	     44.31155514	      0.77338253	     28.50040172	      4.84531366	      0.00000000
      0.03333333	    -12.17880868	      6.83721168	      3.89220337	      2.00936299	      0.98737149	      1.00142766	     38.14637376	    -11.25895687	      0.09582987	    124.73507308	      2.17703772	    -16.52586789	    -20.70279475	      0.00000000	     19.78219527	      7.07612471	    -13.68215365	     42.94842100	      0.74959136	     28.51967406	      6.50667549	      0.00000000
      0.04000000	    -11.69826192	      5.58803524	      2.95566337	      2.01051133	      0.99162734	      1.00266196	     39.63771475	     -8.94047890	      0.42393209	    123.25476513	      2.15120147	    -15.28135281	    -21.68806146	      0.00000000	     16.56809532	      5.29113106	    -14.53126217	     41.40090281	      0.72258207	     28.28241797	      8.36173713	      0.00000000
      0.04666667	    -12.20999729	      4.99343373	      1.92043442	      2.01125961	      0.99466163	      1.00378495	     42.31275161	     -7.21460454	      1.32040147	    121.81276102	      2.12603375	    -13.88858754	    -22.37286684	      0.00000000	     14.36003032	      4.50772168	    -15.30057737	     39.48073127	      0.68906875	     27.22178101	      8.89473713	      0.00000000
      0.05333333	    -12.04559984	      3.76247773	      0.85556639	      2.01313795	      0.99953830	      1.00534817	     43.77547162	     -4.79450186	      1.44872188	    119.75264554	      2.09007795	    -12.75919597	    -23.43216615	      0.00000000	     11.33944499	      2.79302038	    -16.81029366	     37.53971464	      0.65519162	     25.78796334	     11.04309062	      0.00000000
      0.06000000	    -12.69351461	      3.22290828	     -0.21836650	      2.01464590	      1.00349443	      1.00666930	     46.15294805	     -3.03131827	      2.08307378	    117.69510196	      2.05416704	    -11.51118875	    -24.17325349	      0.00000000	      9.16472941	      2.22096305	    -17.86586104	     35.17944758	      0.61399719	     23.12504537	     11.45324902	      0.00000000
      0.06666667	    -12.78884536	      2.20619776	     -1.11027430	      2.01718804	      1.00895381	      1.00788496	     47.46394666	     -1.03863880	      2.01700516	    115.11843995	      2.00919581	    -10.33079928	    -24.93874368	      0.00000000	      6.33530220	      1.16240312	    -19.01991309	     32.68238449	      0.57041522	     19.79950369	     12.14365613	      0.00000000
      0.07333333	    -13.90136235	      1.71477427	     -1.97877774	      2.01905942	      1.01283551	      1.00913241	     49.94732294	      0.51864905	      2.31395916	    112.59200802	      1.96510125	     -9.13232980	    -25.37488755	      0.00000000	      4.81747556	      0.72237823	    -20.18398014	     30.36718070	      0.53000729	     15.82950015	     12.46787798	      0.00000000
